<svg width="168" height="30" viewBox="0 0 168 30" fill="none" xmlns="http://www.w3.org/2000/svg">
<g clip-path="url(#clip0)">
<g clip-path="url(#clip1)">
<path d="M21.915 25.6797L0 25.6797L0 21.5474L21.915 21.5474V25.6797Z" fill="white"/>
<path d="M21.915 7.67553L14.2134 10.7436C10.8007 12.1208 6.60568 13.3416 6.60568 13.3416C6.60568 13.3416 12.2723 12.7788 14.4324 12.7788H21.915V16.8487L1e-05 16.8487L1e-05 12.872L7.73291 9.83591C11.2081 8.45839 15.0898 7.48736 15.0898 7.48736C15.0898 7.48736 9.83055 8.08174 7.13762 8.08174L0 8.08174L0 4.01338L21.915 4.01338L21.915 7.67553Z" fill="white"/>
</g>
<g clip-path="url(#clip2)">
<path d="M38.1224 7.33231L34.0516 7.33231V25.8035H29.983L29.983 7.33231H25.4424V3.8888L38.5922 3.8888L38.1224 7.33231Z" fill="white"/>
<path d="M50.4913 7.2699L44.3851 7.2699V12.6545L49.865 12.6545V15.7229L44.3851 15.7229V22.4227H50.6479V25.8035L40.3164 25.8035L40.3164 3.88881L50.8047 3.88881L50.4913 7.2699Z" fill="white"/>
<path fill-rule="evenodd" clip-rule="evenodd" d="M62.2656 25.8035L61.3884 20.8256C61.0446 18.9161 60.5751 17.3194 59.8227 16.5993L58.1641 16.7247V25.8035H54.0942L54.0942 3.88881H59.6354C63.5804 3.88881 66.3035 5.10952 66.3035 9.99329C66.3035 13.1554 64.9579 14.8776 62.986 15.7853C64.2067 16.3173 64.8955 18.1022 65.3334 20.0747L66.6165 25.8035L62.2656 25.8035ZM59.4165 6.98794H58.1641V13.9069C61.1694 13.7504 62.2348 13.2185 62.2348 9.99329C62.2348 7.39505 61.2955 6.98794 59.4165 6.98794H59.4165Z" fill="white"/>
</g>
<g clip-path="url(#clip3)">
<path d="M89.4441 3.88881L88.6929 25.8035H84.9364L80.5219 15.0031L76.139 25.8035H72.3505L71.5996 3.88881H75.6387L75.8257 12.7797C75.8881 15.4099 75.4822 19.8238 75.4822 19.8238C75.4822 19.8238 76.6393 16.5682 77.4221 14.8776L80.5219 8.17819L83.4967 14.6898C84.3408 16.5058 85.5003 19.7614 85.5003 19.7614C85.5003 19.7614 85.1553 15.7229 85.2189 12.9995L85.4062 3.8888L89.4441 3.88881Z" fill="white"/>
<path d="M98.122 3.88881V25.8035H93.9897V3.88881H98.122Z" fill="white"/>
</g>
<g clip-path="url(#clip4)">
<path d="M123.653 20.7425L116.294 23.6737C113.033 24.99 109.024 26.1564 109.024 26.1564C109.024 26.1564 114.439 25.6187 116.503 25.6187H123.653V29.5064L102.712 29.5064V25.7075L110.101 22.8066C113.422 21.4903 117.131 20.5623 117.131 20.5623C117.131 20.5623 112.106 21.1304 109.533 21.1304H102.712V17.2416L123.653 17.2416V20.7425Z" fill="white"/>
<path fill-rule="evenodd" clip-rule="evenodd" d="M123.653 4.31405L119.285 5.12199V9.90839L123.653 10.716V14.8444L102.712 9.69901V5.33107L123.653 0.185962V4.31405ZM110.55 6.58762C108.516 6.94753 104.777 7.51563 104.777 7.51563C104.777 7.51563 108.516 8.05326 110.55 8.41347L116.353 9.43019V5.60107L110.55 6.58762Z" fill="white"/>
</g>
<g clip-path="url(#clip5)">
<path fill-rule="evenodd" clip-rule="evenodd" d="M135.026 25.8039H129.485V3.88928H135.026C139.409 3.88928 141.382 5.57982 141.382 9.46181C141.382 12.7181 139.722 13.9388 137.938 14.4086C140.035 14.8151 142.008 16.0989 142.008 19.5113C142.008 24.2702 139.691 25.804 135.026 25.804L135.026 25.8039ZM134.651 6.80054H133.555V13.1246L134.4 13.1246C136.56 13.1246 137.311 12.1852 137.311 9.61831C137.311 7.14491 136.341 6.80054 134.651 6.80054L134.651 6.80054ZM134.4 15.9423L133.555 15.9423V22.8927H134.933C136.654 22.8927 137.938 22.3288 137.938 19.5429C137.938 16.7252 136.873 15.9423 134.4 15.9423H134.4Z" fill="white"/>
<path d="M154.222 25.804H145.769V3.8893H149.838V22.3918H154.691L154.222 25.804Z" fill="white"/>
<path d="M167.687 7.27039L161.58 7.27039V12.655L167.06 12.655V15.7234L161.58 15.7234V22.4232H167.843V25.804L157.512 25.804V3.8893L168 3.8893L167.687 7.27039Z" fill="white"/>
</g>
</g>
<defs>
<clipPath id="clip0">
<rect width="168" height="29.3205" fill="white" transform="translate(0 0.185974)"/>
</clipPath>
<clipPath id="clip1">
<rect width="21.6663" height="21.915" fill="white" transform="translate(0 25.6797) rotate(-90)"/>
</clipPath>
<clipPath id="clip2">
<rect width="21.9147" height="41.1743" fill="white" transform="translate(25.4424 25.8035) rotate(-90)"/>
</clipPath>
<clipPath id="clip3">
<rect width="21.9147" height="26.5223" fill="white" transform="translate(71.5996 25.8035) rotate(-90)"/>
</clipPath>
<clipPath id="clip4">
<rect width="29.3205" height="20.9404" fill="white" transform="translate(102.712 29.5064) rotate(-90)"/>
</clipPath>
<clipPath id="clip5">
<rect width="21.9147" height="38.5153" fill="white" transform="translate(129.485 25.804) rotate(-90)"/>
</clipPath>
</defs>
</svg>
